<svg width="24" height="24" viewBox="0 0 24 24" fill="none" xmlns="http://www.w3.org/2000/svg">
<path d="M0.500425 24C0.369425 24 0.241425 23.949 0.146425 23.854C0.0174247 23.726 -0.0305753 23.538 0.0194247 23.363L2.01942 16.363C2.04242 16.281 2.08542 16.207 2.14642 16.147L17.5614 0.731987C18.5084 -0.213013 20.1544 -0.211013 21.0964 0.731987L23.2684 2.90299C23.7404 3.37599 24.0004 4.00399 24.0004 4.67199C24.0004 5.33899 23.7404 5.96699 23.2684 6.43999L7.85442 21.854C7.79442 21.914 7.71942 21.958 7.63842 21.981L0.638425 23.981C0.592425 23.994 0.546425 24 0.500425 24ZM2.94542 16.762L1.22742 22.772L7.23842 21.055L22.5614 5.73199C23.1464 5.14699 23.1464 4.19499 22.5614 3.60999L20.3894 1.43899C19.8244 0.872987 18.8354 0.871987 18.2684 1.43899L2.94542 16.762Z" fill="#34DC6C"/>
<path d="M7.49925 22C7.37125 22 7.24325 21.951 7.14525 21.854C6.95025 21.659 6.95025 21.342 7.14525 21.147L22.5603 5.73199C23.1453 5.14699 23.1453 4.19499 22.5603 3.60999L20.3883 1.43899C19.8233 0.872987 18.8343 0.871987 18.2673 1.43899L2.85325 16.854C2.65825 17.049 2.34125 17.049 2.14625 16.854C1.95125 16.659 1.95125 16.342 2.14625 16.147L17.5603 0.731987C18.5073 -0.213013 20.1533 -0.211013 21.0953 0.731987L23.2673 2.90299C24.2423 3.87799 24.2423 5.46399 23.2673 6.43899L7.85325 21.854C7.75525 21.951 7.62725 22 7.49925 22Z" fill="#34DC6C"/>
<path d="M7.50025 22C7.37225 22 7.24425 21.951 7.14625 21.854L2.14625 16.854C1.95125 16.659 1.95125 16.342 2.14625 16.147C2.34125 15.952 2.65825 15.952 2.85325 16.147L7.85325 21.147C8.04825 21.342 8.04825 21.659 7.85325 21.854C7.75625 21.951 7.62825 22 7.50025 22Z" fill="#34DC6C"/>
<path d="M6.50025 18C6.37225 18 6.24425 17.951 6.14625 17.854C5.95125 17.659 5.95125 17.342 6.14625 17.147L20.1462 3.14698C20.3412 2.95198 20.6583 2.95198 20.8533 3.14698C21.0483 3.34198 21.0483 3.65898 20.8533 3.85398L6.85325 17.854C6.75625 17.951 6.62825 18 6.50025 18Z" fill="#34DC6C"/>
</svg>
